<?xml version="1.0" encoding="utf-8"?>
<!-- Generator: Adobe Illustrator 20.0.0, SVG Export Plug-In . SVG Version: 6.00 Build 0)  -->
<svg version="1.1" id="Map" xmlns="http://www.w3.org/2000/svg" xmlns:xlink="http://www.w3.org/1999/xlink" x="0px" y="0px"
	 viewBox="0 0 2000 1742" style="enable-background:new 0 0 2000 1742;" xml:space="preserve">
<polygon id="Lyon" points="203.6,31 203.6,34.7 248.2,34.7 251,49.3 248.2,63.8 248.2,82.1 248.2,122.2 245.4,158.6 195.2,158.6 
	172.9,158.6 117.1,155 97.6,151.3 61.4,151.3 55.8,144 41.8,144 36.2,140.4 33.5,140.4 33.5,136.7 47.4,122.2 44.6,133.1 
	50.2,133.1 47.4,103.9 53,89.4 53,71.1 44.6,71.1 44.6,67.5 41.8,67.5 41.8,63.8 39,63.8 39,52.9 33.5,52.9 33.5,49.3 30.7,49.3 
	30.7,45.6 36.2,45.6 36.2,23.7 61.4,23.7 61.4,27.4 131.1,27.4 131.1,31 "/>
<polygon id="Osceola" points="376.5,38.3 376.5,42 387.7,42 387.7,136.7 384.9,136.7 384.9,162.3 337.5,162.3 337.5,158.6 
	256.6,158.6 256.6,155 251,155 251,60.2 253.8,60.2 253.8,34.7 281.7,34.7 281.7,38.3 "/>
<polygon id="Dickinson" points="493.6,42 493.6,45.6 529.9,45.6 529.9,169.6 510.4,169.6 510.4,165.9 404.4,165.9 404.4,162.3 
	393.2,162.3 393.2,85.7 396,85.7 396,42 "/>
<polygon id="Emmet" points="613.6,45.6 613.6,49.3 672.1,49.3 672.1,173.2 638.7,173.2 638.7,169.6 535.5,169.6 535.5,122.2 
	538.3,122.2 538.3,45.6 "/>
<polygon id="Kossuth" points="767,49.3 767,52.9 814.4,52.9 814.4,304.4 811.6,304.4 811.6,362.8 808.8,362.8 808.8,359.1 
	674.9,359.1 674.9,337.2 677.7,337.2 677.7,129.5 680.5,129.5 680.5,49.3 "/>
<polygon id="Winnebago" points="956.6,52.9 956.6,176.8 828.3,176.8 828.3,173.2 822.7,173.2 822.7,52.9 "/>
<polygon id="Worth" points="1098.9,52.9 1098.9,176.8 962.2,176.8 962.2,60.2 965,60.2 965,52.9 "/>
<polygon id="Mitchell" points="1241.1,52.9 1241.1,198.7 1107.2,198.7 1107.2,52.9 "/>
<polygon id="Howard" points="1383.3,52.9 1383.3,198.7 1249.5,198.7 1249.5,111.2 1246.7,111.2 1246.7,89.4 1249.5,89.4 
	1249.5,67.5 1246.7,67.5 1246.7,63.8 1249.5,63.8 1249.5,52.9 "/>
<polygon id="Winneshiek" points="1522.8,49.3 1522.8,93 1525.6,93 1525.6,155 1528.4,155 1528.4,268 1391.7,268 1391.7,52.9 
	1433.5,52.9 1433.5,49.3 "/>
<polygon id="Allamakee" points="1603.7,49.3 1603.7,45.6 1642.7,45.6 1642.7,52.9 1639.9,52.9 1639.9,56.5 1637.1,56.5 1637.1,74.8 
	1639.9,74.8 1639.9,78.4 1642.7,78.4 1642.7,82.1 1645.5,82.1 1645.5,89.4 1648.3,89.4 1648.3,103.9 1645.5,103.9 1645.5,125.8 
	1648.3,125.8 1648.3,129.5 1656.7,129.5 1656.7,133.1 1662.2,133.1 1662.2,136.7 1670.6,136.7 1670.6,140.4 1673.4,140.4 
	1673.4,144 1679,144 1679,151.3 1681.8,151.3 1681.8,155 1684.6,155 1684.6,162.3 1687.3,162.3 1687.3,173.2 1692.9,173.2 
	1690.1,173.2 1690.1,180.5 1687.3,180.5 1687.3,184.1 1684.6,184.1 1684.6,187.8 1681.8,187.8 1681.8,191.4 1679,191.4 1679,195.1 
	1676.2,195.1 1676.2,198.7 1673.4,198.7 1673.4,209.7 1670.6,209.7 1670.6,213.3 1667.8,213.3 1667.8,227.9 1665,227.9 1665,231.5 
	1659.4,231.5 1659.4,235.2 1656.7,235.2 1656.7,264.3 1542.3,264.3 1542.3,268 1533.9,268 1533.9,125.8 1531.2,125.8 1531.2,49.3 
	"/>
<polygon id="Sioux" points="212,162.3 212,165.9 242.6,165.9 242.6,268 242.6,278.9 242.6,348.2 206.4,344.5 206.4,340.9 
	122.7,340.9 122.7,337.2 53,337.2 53,333.6 41.8,333.6 41.8,330 47.4,330 47.4,326.3 50.2,326.3 50.2,319 53,319 53,308.1 
	50.2,308.1 50.2,297.1 53,297.1 53,293.5 55.8,293.5 55.8,278.9 53,278.9 53,275.3 50.2,275.3 50.2,268 58.6,268 58.6,264.3 
	64.1,264.3 64.1,260.7 66.9,260.7 66.9,253.4 69.7,253.4 69.7,238.8 72.5,238.8 72.5,235.2 75.3,235.2 75.3,220.6 72.5,220.6 
	72.5,213.3 69.7,213.3 69.7,209.7 66.9,209.7 66.9,187.8 64.1,187.8 64.1,184.1 66.9,184.1 66.9,176.8 64.1,176.8 64.1,165.9 
	47.4,165.9 47.4,162.3 36.2,162.3 41.8,162.3 41.8,155 75.3,155 75.3,158.6 133.9,158.6 133.9,162.3 "/>
<polygon id="O_x27_Brien" points="354.2,169.6 354.2,173.2 384.9,173.2 384.9,260.7 382.1,260.7 382.1,351.8 376.5,351.8 
	376.5,348.2 284.5,348.2 284.5,344.5 245.4,344.5 245.4,340.9 248.2,340.9 248.2,227.9 248.2,206 251,165.9 301.2,165.9 
	301.2,169.6 "/>
<polygon id="Clay" points="451.8,173.2 451.8,176.8 529.9,176.8 529.9,198.7 527.1,198.7 527.1,355.5 479.7,355.5 479.7,351.8 
	387.7,351.8 387.7,330 390.5,330 390.5,206 393.2,206 393.2,173.2 "/>
<polygon id="Palo_Alto" points="672.1,180.5 672.1,227.9 669.4,227.9 669.4,359.1 588.5,359.1 588.5,355.5 532.7,355.5 532.7,289.9 
	535.5,289.9 535.5,176.8 566.2,176.8 566.2,180.5 "/>
<polygon id="Hancock" points="956.6,184.1 956.6,322.7 953.8,322.7 953.8,362.8 820,362.8 820,184.1 "/>
<polygon id="Cerro_Gordo" points="1098.9,184.1 1098.9,362.8 962.2,362.8 962.2,184.1 "/>
<polygon id="Floyd" points="1241.1,209.7 1241.1,362.8 1107.2,362.8 1107.2,209.7 "/>
<polygon id="Chickasaw" points="1383.3,206 1383.3,362.8 1249.5,362.8 1249.5,206 "/>
<polygon id="Fayette" points="1528.4,275.3 1528.4,443 1531.2,443 1531.2,501.3 1458.6,501.3 1458.6,504.9 1391.7,504.9 
	1391.7,275.3 "/>
<polygon id="Clayton" points="1656.7,271.6 1656.7,286.2 1659.4,286.2 1659.4,304.4 1662.2,304.4 1662.2,315.4 1665,315.4 1665,330 
	1667.8,330 1667.8,366.4 1673.4,366.4 1673.4,370.1 1679,370.1 1679,373.7 1681.8,373.7 1681.8,384.6 1684.6,384.6 1684.6,406.5 
	1690.1,406.5 1690.1,428.4 1692.9,428.4 1692.9,439.3 1695.7,439.3 1695.7,450.3 1698.5,450.3 1698.5,457.6 1706.9,457.6 
	1706.9,464.8 1715.2,464.8 1715.2,468.5 1718,468.5 1718,472.1 1720.8,472.1 1720.8,479.4 1729.2,479.4 1729.2,483.1 1743.1,483.1 
	1743.1,486.7 1745.9,486.7 1745.9,494 1748.7,494 1698.5,494 1698.5,497.7 1600.9,497.7 1600.9,501.3 1536.7,501.3 1536.7,282.6 
	1533.9,282.6 1533.9,275.3 1547.9,275.3 1547.9,271.6 "/>
<polygon id="Plymouth" points="159,348.2 159,351.8 231.5,351.8 231.5,355.5 239.8,355.5 239.8,395.6 237.1,395.6 237.1,490.4 
	234.3,490.4 234.3,534.1 220.3,534.1 220.3,530.5 147.8,530.5 147.8,526.8 83.7,526.8 83.7,523.2 50.2,523.2 50.2,508.6 47.4,508.6 
	47.4,501.3 44.6,501.3 44.6,494 41.8,494 41.8,483.1 39,483.1 39,479.4 36.2,479.4 36.2,468.5 30.7,468.5 30.7,464.8 27.9,464.8 
	27.9,461.2 25.1,461.2 25.1,453.9 22.3,453.9 22.3,450.3 19.5,450.3 19.5,446.6 11.1,446.6 11.1,424.7 13.9,424.7 13.9,417.5 
	11.1,417.5 11.1,413.8 13.9,413.8 13.9,410.2 16.7,410.2 16.7,406.5 19.5,406.5 19.5,402.9 22.3,402.9 22.3,391.9 25.1,391.9 
	25.1,388.3 30.7,388.3 30.7,384.6 36.2,384.6 36.2,373.7 39,373.7 39,362.8 36.2,362.8 39,362.8 39,355.5 41.8,355.5 41.8,351.8 
	44.6,351.8 44.6,344.5 83.7,344.5 83.7,348.2 "/>
<polygon id="Cherokee" points="382.1,359.1 382.1,457.6 379.3,457.6 379.3,537.8 359.8,537.8 359.8,534.1 242.6,534.1 242.6,443 
	245.4,443 245.4,355.5 326.3,355.5 326.3,359.1 "/>
<polygon id="Buena_Vista" points="524.3,362.8 524.3,486.7 521.5,486.7 521.5,541.4 449,541.4 449,537.8 384.9,537.8 384.9,468.5 
	387.7,468.5 387.7,359.1 471.3,359.1 471.3,362.8 "/>
<polygon id="Pocahontas" points="580.1,366.4 669.4,366.4 669.4,432 666.6,432 666.6,548.7 661,548.7 661,545 546.6,545 
	546.6,541.4 529.9,541.4 529.9,443 532.7,443 532.7,362.8 "/>
<polygon id="Humboldt" points="811.6,370.1 811.6,504.9 797.6,504.9 797.6,501.3 674.9,501.3 674.9,366.4 708.4,366.4 708.4,370.1 
	"/>
<polygon id="Wright" points="953.8,370.1 953.8,552.3 828.3,552.3 828.3,548.7 817.2,548.7 817.2,457.6 820,457.6 820,370.1 "/>
<polygon id="Franklin" points="1098.9,373.7 1098.9,552.3 959.4,552.3 959.4,530.5 962.2,530.5 962.2,370.1 987.3,370.1 
	987.3,373.7 "/>
<polygon id="Butler" points="1241.1,373.7 1241.1,490.4 1243.9,490.4 1243.9,552.3 1104.4,552.3 1104.4,373.7 "/>
<polygon id="Bremer" points="1308,373.7 1308,370.1 1386.1,370.1 1386.1,388.3 1383.3,388.3 1383.3,395.6 1386.1,395.6 
	1386.1,399.2 1383.3,399.2 1383.3,410.2 1386.1,410.2 1386.1,504.9 1249.5,504.9 1249.5,373.7 "/>
<polygon id="Woodbury" points="142.2,534.1 142.2,537.8 212,537.8 212,541.4 270.5,541.4 270.5,588.8 290,588.8 290,669 287.3,669 
	287.3,723.7 270.5,723.7 270.5,720 192.4,720 192.4,716.4 142.2,716.4 142.2,712.7 92,712.7 94.8,712.7 94.8,701.8 92,701.8 
	94.8,701.8 94.8,694.5 92,694.5 92,683.6 86.5,683.6 86.5,679.9 83.7,679.9 83.7,661.7 80.9,661.7 80.9,654.4 78.1,654.4 
	78.1,650.8 72.5,650.8 72.5,647.1 69.7,647.1 69.7,639.8 66.9,639.8 69.7,639.8 69.7,632.5 72.5,632.5 72.5,621.6 69.7,621.6 
	69.7,614.3 72.5,614.3 72.5,607 75.3,607 75.3,603.4 78.1,603.4 78.1,599.7 80.9,599.7 80.9,570.6 78.1,570.6 78.1,566.9 
	72.5,566.9 72.5,563.3 58.6,563.3 58.6,559.6 53,559.6 53,552.3 50.2,552.3 50.2,548.7 53,548.7 53,534.1 "/>
<polygon id="Ida" points="379.3,545 379.3,592.4 396,592.4 396,701.8 393.2,701.8 393.2,727.3 351.4,727.3 351.4,723.7 295.6,723.7 
	295.6,632.5 298.4,632.5 298.4,581.5 278.9,581.5 278.9,577.9 276.1,577.9 276.1,548.7 278.9,548.7 278.9,541.4 306.8,541.4 
	306.8,545 "/>
<polygon id="Sac" points="496.4,548.7 496.4,552.3 521.5,552.3 521.5,599.7 541.1,599.7 538.3,599.7 538.3,731 451.8,731 
	451.8,727.3 401.6,727.3 401.6,643.5 404.4,643.5 404.4,585.1 384.9,585.1 384.9,545 393.2,545 393.2,548.7 "/>
<polygon id="Calhoun" points="591.3,552.3 591.3,556 666.6,556 666.6,603.4 680.5,603.4 680.5,687.2 677.7,687.2 677.7,734.6 
	549.4,734.6 549.4,731 543.8,731 543.8,669 546.6,669 546.6,588.8 529.9,588.8 529.9,552.3 "/>
<polygon id="Webster" points="811.6,512.2 811.6,607 822.7,607 822.7,610.7 820,610.7 820,738.3 686.1,738.3 686.1,592.4 
	672.1,592.4 672.1,545 674.9,545 674.9,534.1 672.1,534.1 674.9,534.1 674.9,508.6 705.6,508.6 705.6,512.2 "/>
<polygon id="Hamilton" points="953.8,559.6 953.8,607 965,607 965,741.9 914.8,741.9 914.8,738.3 828.3,738.3 828.3,596.1 
	817.2,596.1 817.2,559.6 "/>
<polygon id="Hardin" points="1098.9,563.3 1098.9,610.7 1107.2,610.7 1107.2,741.9 970.6,741.9 970.6,632.5 973.4,632.5 
	973.4,599.7 959.4,599.7 959.4,559.6 973.4,559.6 973.4,563.3 "/>
<polygon id="Grundy" points="1243.9,563.3 1243.9,610.7 1249.5,610.7 1249.5,694.5 1177,694.5 1177,741.9 1112.8,741.9 
	1112.8,599.7 1104.4,599.7 1104.4,563.3 "/>
<polygon id="Black_Hawk" points="1386.1,515.9 1386.1,607 1391.7,607 1391.7,690.9 1288.5,690.9 1288.5,694.5 1257.8,694.5 
	1257.8,603.4 1255,603.4 1255,599.7 1249.5,599.7 1249.5,515.9 "/>
<polygon id="Buchanan" points="1531.2,512.2 1531.2,603.4 1533.9,603.4 1533.9,647.1 1536.7,647.1 1536.7,690.9 1400.1,690.9 
	1400.1,599.7 1394.5,599.7 1394.5,574.2 1391.7,574.2 1391.7,515.9 1402.9,515.9 1402.9,512.2 "/>
<polygon id="Delaware" points="1653.9,508.6 1653.9,504.9 1676.2,504.9 1676.2,599.7 1679,599.7 1679,687.2 1550.7,687.2 
	1550.7,690.9 1542.3,690.9 1542.3,596.1 1539.5,596.1 1539.5,577.9 1536.7,577.9 1536.7,512.2 1542.3,512.2 1542.3,508.6 "/>
<polygon id="Dubuque" points="1754.3,504.9 1754.3,490.4 1759.9,490.4 1759.9,494 1771,494 1771,497.7 1785,497.7 1785,501.3 
	1796.1,501.3 1796.1,504.9 1804.5,504.9 1804.5,508.6 1807.3,508.6 1807.3,515.9 1810.1,515.9 1810.1,526.8 1812.8,526.8 
	1812.8,534.1 1815.6,534.1 1815.6,537.8 1818.4,537.8 1818.4,548.7 1821.2,548.7 1821.2,552.3 1824,552.3 1824,559.6 1826.8,559.6 
	1826.8,570.6 1824,570.6 1824,574.2 1821.2,574.2 1821.2,592.4 1824,592.4 1824,596.1 1826.8,596.1 1826.8,599.7 1832.4,599.7 
	1832.4,603.4 1835.2,603.4 1835.2,607 1843.5,607 1843.5,610.7 1851.9,610.7 1851.9,625.2 1857.5,625.2 1857.5,628.9 1865.8,628.9 
	1865.8,632.5 1871.4,632.5 1829.6,632.5 1829.6,636.2 1821.2,636.2 1821.2,683.6 1701.3,683.6 1701.3,687.2 1687.3,687.2 
	1687.3,654.4 1684.6,654.4 1684.6,566.9 1681.8,566.9 1681.8,504.9 "/>
<polygon id="Monona" points="220.3,727.3 220.3,731 287.3,731 287.3,771.1 284.5,771.1 284.5,873.1 281.7,873.1 281.7,909.6 
	217.5,909.6 217.5,906 161.8,906 161.8,902.3 145,902.3 145,891.4 142.2,891.4 142.2,887.7 139.4,887.7 142.2,887.7 142.2,884.1 
	147.8,884.1 147.8,865.9 150.6,865.9 150.6,844 145,844 145,840.3 133.9,840.3 133.9,825.8 119.9,825.8 122.7,825.8 122.7,811.2 
	119.9,811.2 119.9,807.5 108.8,807.5 108.8,803.9 106,803.9 106,792.9 108.8,792.9 108.8,785.6 111.6,785.6 111.6,767.4 
	108.8,767.4 108.8,763.8 106,763.8 106,760.1 100.4,760.1 100.4,756.5 97.6,756.5 97.6,752.8 94.8,752.8 94.8,749.2 92,749.2 
	92,745.5 89.2,745.5 89.2,741.9 86.5,741.9 86.5,720 83.7,720 108.8,720 108.8,723.7 159,723.7 159,727.3 "/>
<polygon id="Crawford" points="393.2,734.6 393.2,738.3 465.8,738.3 465.8,778.4 463,778.4 463,902.3 460.2,902.3 460.2,916.9 
	407.2,916.9 407.2,913.2 298.4,913.2 298.4,909.6 290,909.6 290,829.4 292.8,829.4 292.8,731 304,731 304,734.6 "/>
<polygon id="Carroll" points="605.2,741.9 605.2,745.5 608,745.5 608,785.6 605.2,785.6 605.2,920.5 493.6,920.5 493.6,916.9 
	468.5,916.9 468.5,844 471.3,844 471.3,738.3 490.9,738.3 490.9,741.9 "/>
<polygon id="Greene" points="747.4,745.5 747.4,924.2 633.1,924.2 633.1,920.5 610.8,920.5 610.8,880.4 613.6,880.4 613.6,745.5 "/>
<polygon id="Boone" points="892.5,749.2 892.5,909.6 889.7,909.6 889.7,927.8 820,927.8 820,924.2 753,924.2 753,869.5 755.8,869.5 
	755.8,745.5 789.3,745.5 789.3,749.2 "/>
<polygon id="Story" points="1034.7,749.2 1034.7,927.8 898.1,927.8 898.1,749.2 "/>
<polygon id="Marshall" points="1177,749.2 1177,756.5 1179.7,756.5 1179.7,927.8 1043.1,927.8 1043.1,749.2 "/>
<polygon id="Tama" points="1322,701.8 1322,927.8 1185.3,927.8 1185.3,701.8 "/>
<polygon id="Benton" points="1430.8,701.8 1430.8,698.2 1464.2,698.2 1464.2,884.1 1467,884.1 1467,924.2 1455.9,924.2 
	1455.9,927.8 1330.3,927.8 1330.3,844 1327.6,844 1327.6,701.8 "/>
<polygon id="Linn" points="1609.2,698.2 1609.2,924.2 1472.6,924.2 1472.6,698.2 "/>
<polygon id="Jones" points="1751.5,694.5 1751.5,873.1 1670.6,873.1 1670.6,876.8 1617.6,876.8 1617.6,800.2 1614.8,800.2 
	1614.8,698.2 1631.6,698.2 1631.6,694.5 "/>
<polygon id="Jackson" points="1879.8,643.5 1879.8,647.1 1882.6,647.1 1882.6,650.8 1885.4,650.8 1885.4,654.4 1888.1,654.4 
	1888.1,658.1 1890.9,658.1 1890.9,665.3 1893.7,665.3 1893.7,669 1896.5,669 1896.5,679.9 1893.7,679.9 1893.7,701.8 1896.5,701.8 
	1896.5,709.1 1899.3,709.1 1899.3,712.7 1902.1,712.7 1902.1,720 1904.9,720 1904.9,723.7 1907.7,723.7 1907.7,727.3 1910.5,727.3 
	1910.5,731 1913.2,731 1913.2,734.6 1921.6,734.6 1921.6,738.3 1927.2,738.3 1927.2,741.9 1932.8,741.9 1932.8,745.5 1938.3,745.5 
	1938.3,749.2 1943.9,749.2 1943.9,752.8 1955.1,752.8 1955.1,756.5 1957.9,756.5 1957.9,760.1 1963.5,760.1 1963.5,771.1 
	1966.2,771.1 1966.2,774.7 1969,774.7 1969,778.4 1977.4,778.4 1977.4,818.5 1902.1,818.5 1902.1,822.1 1812.8,822.1 1812.8,825.8 
	1759.9,825.8 1759.9,720 1757.1,720 1757.1,694.5 1779.4,694.5 1779.4,690.9 1826.8,690.9 1826.8,643.5 "/>
<polygon id="Harrison" points="317.9,920.5 317.9,960.6 315.1,960.6 315.1,1062.7 334.7,1062.7 331.9,1062.7 331.9,1102.8 
	217.5,1102.8 217.5,1099.2 184.1,1099.2 184.1,1080.9 181.3,1080.9 181.3,1077.3 170.1,1077.3 170.1,1084.6 167.3,1084.6 
	167.3,1095.5 164.5,1095.5 164.5,1091.9 161.8,1091.9 161.8,1088.2 156.2,1088.2 156.2,1080.9 153.4,1080.9 156.2,1080.9 
	156.2,1073.6 159,1073.6 159,1055.4 156.2,1055.4 156.2,1051.8 150.6,1051.8 150.6,1040.8 153.4,1040.8 153.4,1033.5 156.2,1033.5 
	156.2,1015.3 153.4,1015.3 153.4,1011.7 150.6,1011.7 150.6,1004.4 147.8,1004.4 161.8,1004.4 161.8,1000.7 164.5,1000.7 
	164.5,986.2 161.8,986.2 161.8,982.5 159,982.5 159,978.9 153.4,978.9 153.4,975.2 161.8,975.2 161.8,960.6 164.5,960.6 164.5,957 
	167.3,957 167.3,938.8 164.5,938.8 164.5,935.1 161.8,935.1 161.8,931.5 156.2,931.5 156.2,927.8 153.4,927.8 153.4,913.2 
	175.7,913.2 175.7,916.9 251,916.9 251,920.5 "/>
<polygon id="Shelby" points="443.4,924.2 443.4,927.8 460.2,927.8 460.2,1048.1 457.4,1048.1 457.4,1066.4 474.1,1066.4 
	474.1,1110.1 429.5,1110.1 429.5,1106.5 340.3,1106.5 340.3,1055.4 326.3,1055.4 326.3,1051.8 320.7,1051.8 320.7,1022.6 
	323.5,1022.6 323.5,920.5 340.3,920.5 340.3,924.2 "/>
<polygon id="Audubon" points="546.6,927.8 546.6,931.5 568.9,931.5 568.9,1004.4 566.2,1004.4 566.2,1070 580.1,1070 580.1,1113.7 
	527.1,1113.7 527.1,1110.1 482.5,1110.1 482.5,1059.1 465.8,1059.1 465.8,971.6 468.5,971.6 468.5,927.8 "/>
<polygon id="Guthrie" points="711.2,931.5 711.2,1073.6 722.3,1073.6 722.3,1117.4 652.6,1117.4 652.6,1113.7 585.7,1113.7 
	585.7,1062.7 574.5,1062.7 574.5,931.5 "/>
<polygon id="Dallas" points="806,931.5 806,935.1 853.4,935.1 853.4,1077.3 861.8,1077.3 861.8,1113.7 859,1113.7 859,1117.4 
	831.1,1117.4 831.1,1121 828.3,1121 828.3,1117.4 727.9,1117.4 727.9,1062.7 716.8,1062.7 716.8,1040.8 719.6,1040.8 719.6,931.5 
	"/>
<polygon id="Polk" points="998.5,935.1 998.5,1077.3 1004,1077.3 1004,1132 1004,1124.7 995.7,1124.7 995.7,1128.3 995.7,1124.7 
	990.1,1124.7 990.1,1121 984.5,1121 984.5,1117.4 976.1,1117.4 976.1,1121 976.1,1117.4 928.7,1117.4 928.7,1113.7 867.4,1113.7 
	867.4,1066.4 861.8,1066.4 861.8,935.1 "/>
<polygon id="Jasper" points="1179.7,935.1 1179.7,1077.3 1182.5,1077.3 1182.5,1117.4 1012.4,1117.4 1012.4,1070 1009.6,1070 
	1009.6,1066.4 1006.8,1066.4 1006.8,935.1 "/>
<polygon id="Poweshiek" points="1322,935.1 1322,1077.3 1324.8,1077.3 1324.8,1117.4 1190.9,1117.4 1190.9,1102.8 1188.1,1102.8 
	1188.1,1066.4 1185.3,1066.4 1185.3,935.1 "/>
<polygon id="Iowa" points="1461.4,935.1 1461.4,931.5 1467,931.5 1467,1073.6 1469.8,1073.6 1469.8,1113.7 1372.2,1113.7 
	1372.2,1117.4 1330.3,1117.4 1330.3,935.1 "/>
<polygon id="Johnson" points="1609.2,931.5 1609.2,935.1 1612,935.1 1612,1157.5 1584.1,1157.5 1584.1,1153.8 1581.4,1153.8 
	1581.4,1150.2 1578.6,1150.2 1578.6,1139.3 1575.8,1139.3 1578.6,1139.3 1578.6,1121 1575.8,1121 1575.8,1117.4 1573,1117.4 
	1573,1110.1 1553.5,1110.1 1553.5,1113.7 1475.4,1113.7 1475.4,1022.6 1472.6,1022.6 1472.6,1004.4 1475.4,1004.4 1475.4,938.8 
	1472.6,938.8 1472.6,931.5 "/>
<polygon id="Cedar" points="1740.3,884.1 1740.3,880.4 1754.3,880.4 1754.3,1040.8 1757.1,1040.8 1757.1,1059.1 1715.2,1059.1 
	1715.2,1062.7 1620.4,1062.7 1620.4,1019 1617.6,1019 1617.6,884.1 "/>
<polygon id="Clinton" points="1868.6,833 1868.6,829.4 1949.5,829.4 1949.5,825.8 1983,825.8 1983,833 1985.8,833 1985.8,844 
	1983,844 1983,851.3 1980.2,851.3 1980.2,876.8 1983,876.8 1983,895 1980.2,895 1980.2,906 1977.4,906 1977.4,920.5 1974.6,920.5 
	1974.6,938.8 1977.4,938.8 1974.6,938.8 1974.6,942.4 1969,942.4 1969,946.1 1963.5,946.1 1963.5,949.7 1957.9,949.7 1957.9,953.3 
	1955.1,953.3 1955.1,957 1952.3,957 1952.3,960.6 1946.7,960.6 1946.7,964.3 1943.9,964.3 1943.9,967.9 1941.1,967.9 1941.1,971.6 
	1938.3,971.6 1938.3,975.2 1935.6,975.2 1935.6,978.9 1935.6,975.2 1927.2,975.2 1927.2,982.5 1924.4,982.5 1924.4,978.9 
	1913.2,978.9 1913.2,982.5 1913.2,978.9 1907.7,978.9 1907.7,971.6 1904.9,971.6 1904.9,967.9 1902.1,967.9 1902.1,964.3 
	1893.7,964.3 1893.7,967.9 1893.7,960.6 1885.4,960.6 1885.4,964.3 1877,964.3 1877,960.6 1865.8,960.6 1865.8,964.3 1863,964.3 
	1863,967.9 1857.5,967.9 1857.5,964.3 1849.1,964.3 1849.1,967.9 1837.9,967.9 1837.9,971.6 1837.9,967.9 1824,967.9 1824,971.6 
	1821.2,971.6 1821.2,975.2 1818.4,975.2 1818.4,982.5 1815.6,982.5 1815.6,978.9 1807.3,978.9 1807.3,971.6 1804.5,971.6 
	1804.5,967.9 1762.6,967.9 1762.6,942.4 1759.9,942.4 1759.9,833 "/>
<polygon id="Scott" points="1807.3,989.8 1807.3,993.4 1824,993.4 1824,989.8 1826.8,989.8 1826.8,982.5 1829.6,982.5 1829.6,978.9 
	1832.4,978.9 1832.4,982.5 1840.7,982.5 1840.7,978.9 1851.9,978.9 1851.9,975.2 1854.7,975.2 1854.7,978.9 1860.3,978.9 
	1860.3,975.2 1871.4,975.2 1871.4,971.6 1874.2,971.6 1874.2,975.2 1882.6,975.2 1882.6,971.6 1888.1,971.6 1888.1,978.9 
	1896.5,978.9 1896.5,975.2 1899.3,975.2 1899.3,978.9 1902.1,978.9 1902.1,989.8 1907.7,989.8 1907.7,993.4 1932.8,993.4 
	1932.8,989.8 1935.6,989.8 1935.6,1004.4 1932.8,1004.4 1932.8,1008 1930,1008 1930,1026.3 1927.2,1026.3 1927.2,1048.1 
	1930,1048.1 1930,1059.1 1927.2,1059.1 1927.2,1062.7 1921.6,1062.7 1921.6,1066.4 1913.2,1066.4 1913.2,1070 1907.7,1070 
	1907.7,1077.3 1904.9,1077.3 1904.9,1080.9 1902.1,1080.9 1902.1,1084.6 1899.3,1084.6 1899.3,1088.2 1896.5,1088.2 1896.5,1095.5 
	1890.9,1095.5 1890.9,1099.2 1882.6,1099.2 1882.6,1095.5 1863,1095.5 1863,1099.2 1860.3,1099.2 1860.3,1102.8 1851.9,1102.8 
	1851.9,1106.5 1849.1,1106.5 1849.1,1113.7 1846.3,1113.7 1846.3,1117.4 1843.5,1117.4 1843.5,1121 1840.7,1121 1840.7,1124.7 
	1837.9,1124.7 1837.9,1128.3 1835.2,1128.3 1835.2,1132 1824,1132 1824,1135.6 1812.8,1135.6 1812.8,1139.3 1798.9,1139.3 
	1798.9,1059.1 1762.6,1059.1 1762.6,975.2 1796.1,975.2 1796.1,978.9 1798.9,978.9 1798.9,986.2 1801.7,986.2 1801.7,989.8 "/>
<polygon id="Muscatine" points="1790.5,1070 1790.5,1066.4 1793.3,1066.4 1793.3,1135.6 1773.8,1135.6 1773.8,1139.3 1768.2,1139.3 
	1768.2,1142.9 1765.4,1142.9 1765.4,1146.6 1759.9,1146.6 1759.9,1150.2 1754.3,1150.2 1754.3,1153.8 1745.9,1153.8 1745.9,1150.2 
	1729.2,1150.2 1729.2,1153.8 1718,1153.8 1718,1157.5 1715.2,1157.5 1715.2,1161.1 1712.4,1161.1 1712.4,1179.4 1709.7,1179.4 
	1709.7,1183 1706.9,1183 1706.9,1204.9 1620.4,1204.9 1620.4,1073.6 1642.7,1073.6 1642.7,1070 "/>
<polygon id="Pottawattamie" points="379.3,1113.7 379.3,1117.4 437.9,1117.4 437.9,1223.1 435.1,1223.1 435.1,1296 401.6,1296 
	401.6,1292.4 309.6,1292.4 309.6,1288.7 304,1288.7 304,1292.4 304,1288.7 228.7,1288.7 228.7,1277.8 225.9,1277.8 225.9,1274.1 
	203.6,1274.1 203.6,1266.9 200.8,1266.9 203.6,1266.9 203.6,1263.2 206.4,1263.2 206.4,1255.9 209.2,1255.9 209.2,1245 206.4,1245 
	206.4,1237.7 203.6,1237.7 206.4,1237.7 206.4,1234 214.7,1234 214.7,1230.4 217.5,1230.4 217.5,1226.8 220.3,1226.8 220.3,1204.9 
	217.5,1204.9 217.5,1201.2 212,1201.2 212,1197.6 203.6,1197.6 203.6,1201.2 203.6,1197.6 200.8,1197.6 200.8,1193.9 198,1193.9 
	198,1190.3 195.2,1190.3 200.8,1190.3 200.8,1186.7 203.6,1186.7 203.6,1168.4 200.8,1168.4 200.8,1164.8 203.6,1164.8 
	203.6,1146.6 206.4,1146.6 206.4,1142.9 209.2,1142.9 209.2,1128.3 206.4,1128.3 206.4,1124.7 203.6,1124.7 203.6,1121 189.6,1121 
	189.6,1117.4 178.5,1117.4 178.5,1113.7 181.3,1113.7 181.3,1110.1 184.1,1110.1 184.1,1106.5 212,1106.5 212,1110.1 290,1110.1 
	290,1113.7 "/>
<polygon id="Cass" points="577.3,1121 577.3,1124.7 580.1,1124.7 580.1,1201.2 577.3,1201.2 577.3,1299.7 490.9,1299.7 490.9,1296 
	440.7,1296 443.4,1296 443.4,1172.1 446.2,1172.1 446.2,1117.4 465.8,1117.4 465.8,1121 "/>
<polygon id="Adair" points="722.3,1124.7 722.3,1142.9 719.6,1142.9 719.6,1303.3 610.8,1303.3 610.8,1299.7 582.9,1299.7 
	582.9,1296 585.7,1296 585.7,1124.7 "/>
<polygon id="Madison" points="847.8,1128.3 847.8,1124.7 861.8,1124.7 861.8,1296 859,1296 859,1303.3 847.8,1303.3 847.8,1307 
	753,1307 753,1303.3 725.1,1303.3 725.1,1274.1 727.9,1274.1 727.9,1124.7 727.9,1128.3 "/>
<polygon id="Warren" points="956.6,1124.7 956.6,1128.3 970.6,1128.3 970.6,1132 976.1,1132 976.1,1135.6 981.7,1135.6 
	981.7,1139.3 990.1,1139.3 990.1,1135.6 990.1,1139.3 998.5,1139.3 998.5,1142.9 1004,1142.9 1004,1307 934.3,1307 934.3,1303.3 
	867.4,1303.3 867.4,1124.7 "/>
<polygon id="Marion" points="1146.3,1128.3 1146.3,1307 1012.4,1307 1012.4,1128.3 "/>
<polygon id="Mahaska" points="1257.8,1128.3 1257.8,1124.7 1288.5,1124.7 1288.5,1303.3 1266.2,1303.3 1266.2,1307 1154.6,1307 
	1154.6,1128.3 "/>
<polygon id="Keokuk" points="1433.5,1124.7 1433.5,1263.2 1436.3,1263.2 1436.3,1303.3 1296.9,1303.3 1296.9,1146.6 1294.1,1146.6 
	1294.1,1124.7 "/>
<polygon id="Washington" points="1561.8,1121 1561.8,1124.7 1564.6,1124.7 1564.6,1128.3 1567.4,1128.3 1567.4,1132 1570.2,1132 
	1567.4,1132 1567.4,1146.6 1570.2,1146.6 1570.2,1153.8 1573,1153.8 1573,1157.5 1575.8,1157.5 1575.8,1164.8 1578.6,1164.8 
	1578.6,1299.7 1497.7,1299.7 1497.7,1303.3 1441.9,1303.3 1441.9,1168.4 1439.1,1168.4 1439.1,1124.7 1461.4,1124.7 1461.4,1121 "/>
<polygon id="Louisa" points="1706.9,1212.2 1706.9,1219.5 1704.1,1219.5 1704.1,1223.1 1701.3,1223.1 1701.3,1230.4 1698.5,1230.4 
	1698.5,1241.3 1695.7,1241.3 1695.7,1248.6 1692.9,1248.6 1692.9,1266.9 1698.5,1266.9 1698.5,1274.1 1701.3,1274.1 1701.3,1277.8 
	1706.9,1277.8 1706.9,1285.1 1709.7,1285.1 1709.7,1288.7 1712.4,1288.7 1712.4,1296 1715.2,1296 1715.2,1303.3 1732,1303.3 
	1732,1307 1734.8,1307 1734.8,1314.3 1737.5,1314.3 1737.5,1321.5 1740.3,1321.5 1740.3,1328.8 1743.1,1328.8 1743.1,1332.5 
	1745.9,1332.5 1745.9,1343.4 1687.3,1343.4 1687.3,1347.1 1623.2,1347.1 1623.2,1299.7 1586.9,1299.7 1586.9,1288.7 1584.1,1288.7 
	1584.1,1168.4 1612,1168.4 1612,1179.4 1614.8,1179.4 1614.8,1215.8 1628.8,1215.8 "/>
<polygon id="Mills" points="354.2,1299.7 354.2,1303.3 362.6,1303.3 362.6,1398.1 359.8,1398.1 359.8,1430.9 281.7,1430.9 
	281.7,1427.3 231.5,1427.3 231.5,1423.6 228.7,1423.6 228.7,1420 225.9,1420 225.9,1405.4 228.7,1405.4 228.7,1383.5 225.9,1383.5 
	225.9,1379.9 223.1,1379.9 223.1,1376.2 217.5,1376.2 217.5,1368.9 220.3,1368.9 220.3,1350.7 217.5,1350.7 217.5,1347.1 
	214.7,1347.1 214.7,1343.4 217.5,1343.4 217.5,1339.8 220.3,1339.8 220.3,1310.6 217.5,1310.6 217.5,1299.7 214.7,1299.7 
	214.7,1296 259.4,1296 259.4,1299.7 "/>
<polygon id="Montgomery" points="440.7,1307 504.8,1307 504.8,1438.2 468.5,1438.2 468.5,1434.6 373.7,1434.6 373.7,1430.9 
	368.1,1430.9 368.1,1343.4 370.9,1343.4 370.9,1303.3 "/>
<polygon id="Adams" points="649.8,1310.6 649.8,1339.8 647,1339.8 647,1441.8 577.3,1441.8 577.3,1438.2 510.4,1438.2 510.4,1379.9 
	513.2,1379.9 513.2,1307 543.8,1307 543.8,1310.6 "/>
<polygon id="Union" points="789.3,1314.3 789.3,1445.5 702.8,1445.5 702.8,1441.8 652.6,1441.8 652.6,1350.7 655.4,1350.7 
	655.4,1310.6 672.1,1310.6 672.1,1314.3 "/>
<polygon id="Clarke" points="931.5,1314.3 931.5,1445.5 794.9,1445.5 794.9,1387.2 797.6,1387.2 797.6,1314.3 "/>
<polygon id="Lucas" points="1076.5,1314.3 1076.5,1449.1 939.9,1449.1 939.9,1314.3 "/>
<polygon id="Monroe" points="1218.8,1314.3 1218.8,1449.1 1082.1,1449.1 1082.1,1314.3 "/>
<polygon id="Wapello" points="1361,1314.3 1361,1368.9 1363.8,1368.9 1363.8,1445.5 1238.3,1445.5 1238.3,1449.1 1227.2,1449.1 
	1227.2,1441.8 1224.4,1441.8 1224.4,1314.3 "/>
<polygon id="Jefferson" points="1506.1,1310.6 1506.1,1416.3 1508.8,1416.3 1508.8,1441.8 1447.5,1441.8 1447.5,1445.5 
	1369.4,1445.5 1369.4,1314.3 1380.5,1314.3 1380.5,1310.6 "/>
<polygon id="Henry" points="1603.7,1310.6 1603.7,1307 1614.8,1307 1614.8,1427.3 1617.6,1427.3 1617.6,1489.2 1514.4,1489.2 
	1514.4,1310.6 "/>
<polygon id="Fremont" points="359.8,1441.8 359.8,1514.8 357,1514.8 357,1536.6 362.6,1536.6 362.6,1562.1 359.8,1562.1 
	359.8,1605.9 340.3,1605.9 340.3,1602.2 287.3,1602.2 287.3,1598.6 251,1598.6 251,1587.7 248.2,1587.7 248.2,1584 245.4,1584 
	245.4,1580.4 242.6,1580.4 242.6,1562.1 239.8,1562.1 239.8,1558.5 237.1,1558.5 237.1,1554.9 225.9,1554.9 225.9,1551.2 
	223.1,1551.2 223.1,1547.6 220.3,1547.6 220.3,1536.6 217.5,1536.6 217.5,1529.3 209.2,1529.3 209.2,1514.8 212,1514.8 212,1511.1 
	217.5,1511.1 217.5,1507.5 220.3,1507.5 220.3,1503.8 223.1,1503.8 223.1,1500.2 225.9,1500.2 225.9,1485.6 223.1,1485.6 
	223.1,1474.7 225.9,1474.7 225.9,1463.7 223.1,1463.7 223.1,1452.8 228.7,1452.8 228.7,1449.1 231.5,1449.1 231.5,1445.5 
	234.3,1445.5 234.3,1434.6 234.3,1438.2 320.7,1438.2 320.7,1441.8 "/>
<polygon id="Page" points="502,1445.5 502,1540.3 507.6,1540.3 507.6,1551.2 504.8,1551.2 504.8,1613.2 471.3,1613.2 471.3,1609.5 
	407.2,1609.5 407.2,1605.9 368.1,1605.9 368.1,1543.9 370.9,1543.9 370.9,1525.7 365.4,1525.7 365.4,1467.4 368.1,1467.4 
	368.1,1441.8 412.8,1441.8 412.8,1445.5 "/>
<polygon id="Taylor" points="627.5,1449.1 627.5,1452.8 647,1452.8 647,1525.7 644.3,1525.7 644.3,1620.5 619.2,1620.5 
	619.2,1616.8 541.1,1616.8 541.1,1613.2 513.2,1613.2 513.2,1533 507.6,1533 507.6,1529.3 510.4,1529.3 510.4,1518.4 507.6,1518.4 
	510.4,1518.4 510.4,1445.5 518.7,1445.5 518.7,1449.1 "/>
<polygon id="Ringgold" points="755.8,1452.8 755.8,1456.4 789.3,1456.4 789.3,1507.5 786.5,1507.5 786.5,1620.5 652.6,1620.5 
	652.6,1452.8 "/>
<polygon id="Decatur" points="931.5,1456.4 931.5,1620.5 794.9,1620.5 794.9,1456.4 "/>
<polygon id="Wayne" points="1076.5,1456.4 1076.5,1616.8 1034.7,1616.8 1034.7,1620.5 951,1620.5 951,1616.8 937.1,1616.8 
	937.1,1605.9 939.9,1605.9 939.9,1456.4 "/>
<polygon id="Appanoose" points="1218.8,1456.4 1218.8,1613.2 1140.7,1613.2 1140.7,1616.8 1082.1,1616.8 1082.1,1456.4 "/>
<polygon id="Davis" points="1363.8,1456.4 1363.8,1605.9 1333.1,1605.9 1333.1,1609.5 1255,1609.5 1255,1613.2 1227.2,1613.2 
	1227.2,1456.4 "/>
<polygon id="Van_Buren" points="1508.8,1452.8 1508.8,1595 1506.1,1595 1506.1,1598.6 1467,1598.6 1467,1602.2 1408.4,1602.2 
	1408.4,1605.9 1372.2,1605.9 1372.2,1496.5 1369.4,1496.5 1369.4,1456.4 1383.3,1456.4 1383.3,1452.8 "/>
<polygon id="Des_Moines" points="1748.7,1354.4 1748.7,1387.2 1745.9,1387.2 1745.9,1420 1743.1,1420 1743.1,1427.3 1737.5,1427.3 
	1737.5,1430.9 1734.8,1430.9 1734.8,1434.6 1729.2,1434.6 1729.2,1438.2 1726.4,1438.2 1726.4,1445.5 1723.6,1445.5 1723.6,1449.1 
	1720.8,1449.1 1720.8,1452.8 1718,1452.8 1718,1463.7 1715.2,1463.7 1715.2,1467.4 1712.4,1467.4 1712.4,1471 1709.7,1471 
	1709.7,1474.7 1706.9,1474.7 1706.9,1478.3 1704.1,1478.3 1704.1,1489.2 1701.3,1489.2 1701.3,1500.2 1704.1,1500.2 1704.1,1514.8 
	1701.3,1514.8 1701.3,1518.4 1698.5,1518.4 1698.5,1543.9 1695.7,1543.9 1695.7,1540.3 1690.1,1540.3 1690.1,1536.6 1679,1536.6 
	1679,1540.3 1679,1536.6 1676.2,1536.6 1676.2,1533 1673.4,1533 1673.4,1529.3 1667.8,1529.3 1667.8,1525.7 1665,1525.7 1665,1522 
	1662.2,1522 1662.2,1518.4 1651.1,1518.4 1651.1,1511.1 1648.3,1511.1 1648.3,1507.5 1639.9,1507.5 1639.9,1503.8 1637.1,1503.8 
	1637.1,1500.2 1626,1500.2 1626,1496.5 1620.4,1496.5 1623.2,1496.5 1623.2,1354.4 "/>
<polygon id="Lee" points="1539.5,1500.2 1539.5,1496.5 1606.5,1496.5 1606.5,1500.2 1612,1500.2 1612,1503.8 1617.6,1503.8 
	1617.6,1507.5 1623.2,1507.5 1623.2,1511.1 1631.6,1511.1 1631.6,1514.8 1634.3,1514.8 1634.3,1518.4 1642.7,1518.4 1642.7,1522 
	1645.5,1522 1645.5,1529.3 1656.7,1529.3 1656.7,1533 1659.4,1533 1659.4,1536.6 1665,1536.6 1665,1540.3 1667.8,1540.3 
	1667.8,1547.6 1676.2,1547.6 1676.2,1551.2 1684.6,1551.2 1684.6,1543.9 1684.6,1551.2 1690.1,1551.2 1690.1,1554.9 1698.5,1554.9 
	1695.7,1554.9 1695.7,1565.8 1690.1,1565.8 1690.1,1569.4 1687.3,1569.4 1687.3,1573.1 1681.8,1573.1 1681.8,1576.7 1679,1576.7 
	1679,1580.4 1653.9,1580.4 1653.9,1584 1645.5,1584 1645.5,1587.7 1637.1,1587.7 1637.1,1591.3 1631.6,1591.3 1631.6,1595 
	1626,1595 1626,1598.6 1623.2,1598.6 1623.2,1602.2 1620.4,1602.2 1620.4,1609.5 1617.6,1609.5 1617.6,1616.8 1614.8,1616.8 
	1614.8,1620.5 1612,1620.5 1612,1624.1 1609.2,1624.1 1609.2,1631.4 1606.5,1631.4 1606.5,1642.3 1609.2,1642.3 1609.2,1646 
	1614.8,1646 1614.8,1653.3 1617.6,1653.3 1617.6,1656.9 1620.4,1656.9 1620.4,1675.2 1617.6,1675.2 1617.6,1686.1 1614.8,1686.1 
	1614.8,1700.7 1617.6,1700.7 1617.6,1718.9 1589.7,1718.9 1589.7,1708 1578.6,1708 1578.6,1704.3 1581.4,1704.3 1581.4,1693.4 
	1575.8,1693.4 1578.6,1693.4 1578.6,1678.8 1564.6,1678.8 1564.6,1675.2 1559,1675.2 1559,1664.2 1556.3,1664.2 1556.3,1660.6 
	1553.5,1660.6 1553.5,1656.9 1547.9,1656.9 1547.9,1635.1 1542.3,1635.1 1542.3,1631.4 1525.6,1631.4 1525.6,1613.2 1522.8,1613.2 
	1522.8,1609.5 1517.2,1609.5 1517.2,1543.9 1514.4,1543.9 1514.4,1500.2 "/>
</svg>
